<svg xmlns="http://www.w3.org/2000/svg" viewBox="0 0 980 270" width="980" height="270" font-family="Noto Sans CJK KR, Noto Sans KR, Apple SD Gothic Neo, Malgun Gothic, sans-serif">
<defs><marker id="arr" markerWidth="8" markerHeight="8" refX="7" refY="4" orient="auto"><path d="M0,0 L8,4 L0,8 z" fill="#333"/></marker></defs>
<rect width="980" height="270" fill="#fff"/>
<text x="20" y="30" font-size="20" font-weight="700" fill="#111">전체 흐름</text>
<rect x="30" y="55" width="200" height="70" rx="8" fill="#fdecea" stroke="#444" stroke-width="1.5"/>
<circle cx="50" cy="77" r="12" fill="#222"/><text x="50" y="82" font-size="13" font-weight="700" fill="#fff" text-anchor="middle">1</text>
<text x="70" y="82" font-size="15" font-weight="700" fill="#111">부품 검수·라벨링</text>
<text x="44" y="107" font-size="12" fill="#444">서보 모델 확인, F1~F6 / L1~L6</text>
<rect x="270" y="55" width="200" height="70" rx="8" fill="#f4f6f7" stroke="#444" stroke-width="1.5"/>
<circle cx="290" cy="77" r="12" fill="#222"/><text x="290" y="82" font-size="13" font-weight="700" fill="#fff" text-anchor="middle">2</text>
<text x="310" y="82" font-size="15" font-weight="700" fill="#111">LeRobot 설치</text>
<text x="284" y="107" font-size="12" fill="#444">Python 3.10~3.12, [feetech]</text>
<rect x="510" y="55" width="200" height="70" rx="8" fill="#f4f6f7" stroke="#444" stroke-width="1.5"/>
<circle cx="530" cy="77" r="12" fill="#222"/><text x="530" y="82" font-size="13" font-weight="700" fill="#fff" text-anchor="middle">3</text>
<text x="550" y="82" font-size="15" font-weight="700" fill="#111">포트 식별</text>
<text x="524" y="107" font-size="12" fill="#444">lerobot-find-port</text>
<rect x="750" y="55" width="200" height="70" rx="8" fill="#fdecea" stroke="#444" stroke-width="1.5"/>
<circle cx="770" cy="77" r="12" fill="#222"/><text x="770" y="82" font-size="13" font-weight="700" fill="#fff" text-anchor="middle">4</text>
<text x="790" y="82" font-size="15" font-weight="700" fill="#111">모터 ID 설정</text>
<text x="764" y="107" font-size="12" fill="#444">lerobot-setup-motors</text>
<rect x="750" y="165" width="200" height="70" rx="8" fill="#f4f6f7" stroke="#444" stroke-width="1.5"/>
<circle cx="770" cy="187" r="12" fill="#222"/><text x="770" y="192" font-size="13" font-weight="700" fill="#fff" text-anchor="middle">5</text>
<text x="790" y="192" font-size="15" font-weight="700" fill="#111">조립</text>
<text x="764" y="217" font-size="12" fill="#444">Follower / Leader, 배선 병행</text>
<rect x="510" y="165" width="200" height="70" rx="8" fill="#f4f6f7" stroke="#444" stroke-width="1.5"/>
<circle cx="530" cy="187" r="12" fill="#222"/><text x="530" y="192" font-size="13" font-weight="700" fill="#fff" text-anchor="middle">6</text>
<text x="550" y="192" font-size="15" font-weight="700" fill="#111">캘리브레이션</text>
<text x="524" y="217" font-size="12" fill="#444">lerobot-calibrate</text>
<rect x="270" y="165" width="200" height="70" rx="8" fill="#f4f6f7" stroke="#444" stroke-width="1.5"/>
<circle cx="290" cy="187" r="12" fill="#222"/><text x="290" y="192" font-size="13" font-weight="700" fill="#fff" text-anchor="middle">7</text>
<text x="310" y="192" font-size="15" font-weight="700" fill="#111">텔레옵 검증</text>
<text x="284" y="217" font-size="12" fill="#444">lerobot-teleoperate</text>
<rect x="30" y="165" width="200" height="70" rx="8" fill="#f4f6f7" stroke="#444" stroke-width="1.5"/>
<circle cx="50" cy="187" r="12" fill="#222"/><text x="50" y="192" font-size="13" font-weight="700" fill="#fff" text-anchor="middle">8</text>
<text x="70" y="192" font-size="15" font-weight="700" fill="#111">카메라·데이터 수집</text>
<text x="44" y="217" font-size="12" fill="#444">lerobot-record</text>
<line x1="230" y1="90.0" x2="268" y2="90.0" stroke="#333" stroke-width="2" marker-end="url(#arr)"/>
<line x1="470" y1="90.0" x2="508" y2="90.0" stroke="#333" stroke-width="2" marker-end="url(#arr)"/>
<line x1="710" y1="90.0" x2="748" y2="90.0" stroke="#333" stroke-width="2" marker-end="url(#arr)"/>
<line x1="850.0" y1="125" x2="850.0" y2="163" stroke="#333" stroke-width="2" marker-end="url(#arr)"/>
<line x1="750" y1="200.0" x2="712" y2="200.0" stroke="#333" stroke-width="2" marker-end="url(#arr)"/>
<line x1="510" y1="200.0" x2="472" y2="200.0" stroke="#333" stroke-width="2" marker-end="url(#arr)"/>
<line x1="270" y1="200.0" x2="232" y2="200.0" stroke="#333" stroke-width="2" marker-end="url(#arr)"/>
<text x="30" y="258" font-size="12" fill="#c0392b">붉은 칸 = 실수하면 되돌리기 어려운 단계. 4번(ID 설정)은 조립 전에 하는 것이 공식 순서다.</text>
</svg>